<svg width="32" height="32" viewBox="0 0 32 32" fill="none" xmlns="http://www.w3.org/2000/svg">
<path d="M32 16C32 24.8366 24.8366 32 16 32C7.16344 32 0 24.8366 0 16C0 7.16344 7.16344 0 16 0C24.8366 0 32 7.16344 32 16Z" fill="#0042A6"/>
<path d="M18.384 10.776V10.56H20.56C21.0827 10.56 21.4747 10.6827 21.736 10.928C21.9973 11.168 22.128 11.4773 22.128 11.856V12.072C22.128 12.3493 22.0453 12.5867 21.88 12.784C21.7147 12.9813 21.4827 13.12 21.184 13.2C21.5573 13.264 21.848 13.4053 22.056 13.624C22.264 13.8427 22.368 14.1173 22.368 14.448V14.664C22.368 15.0533 22.232 15.3733 21.96 15.624C21.6933 15.8747 21.2933 16 20.76 16H18.384V15.792L18.824 15.744C18.9093 15.7333 18.96 15.712 18.976 15.68C18.992 15.648 19 15.5387 19 15.352V11.208C19 11.0213 18.992 10.912 18.976 10.88C18.96 10.848 18.9093 10.8267 18.824 10.816L18.384 10.776ZM20.56 10.816H19.696V13.104H20.56C21.1147 13.104 21.392 12.7813 21.392 12.136V11.808C21.392 11.1467 21.1147 10.816 20.56 10.816ZM20.76 13.36H19.696V15.744H20.76C21.3413 15.744 21.632 15.4 21.632 14.712V14.384C21.632 14.0533 21.5573 13.8 21.408 13.624C21.264 13.448 21.048 13.36 20.76 13.36Z" fill="white"/>
<path d="M23.488 21.792V22H21.56V21.792L22 21.744C22.0853 21.7333 22.136 21.712 22.152 21.68C22.168 21.6427 22.176 21.5333 22.176 21.352V17.016L20.512 21.36H19.968L18.296 17.016V21.352C18.296 21.5333 18.304 21.6427 18.32 21.68C18.336 21.712 18.3867 21.7333 18.472 21.744L18.912 21.792V22H17.384V21.792L17.824 21.744C17.9093 21.7333 17.96 21.712 17.976 21.68C17.992 21.6427 18 21.5333 18 21.352V17.208C18 17.0267 17.992 16.92 17.976 16.888C17.96 16.8507 17.9093 16.8267 17.824 16.816L17.384 16.776V16.56H18.848L20.456 20.76L22.064 16.56H23.488V16.776L23.048 16.816C22.9627 16.8267 22.912 16.8507 22.896 16.888C22.88 16.92 22.872 17.0267 22.872 17.208V21.352C22.872 21.5333 22.88 21.6427 22.896 21.68C22.912 21.712 22.9627 21.7333 23.048 21.744L23.488 21.792Z" fill="white"/>
<path d="M9.10938 23.0781C8.80729 23.0781 8.51042 23.0156 8.21875 22.8906C7.92708 22.776 7.66667 22.6094 7.4375 22.3906C7.20833 22.1719 7.02604 21.901 6.89062 21.5781C6.75521 21.2656 6.69792 20.9062 6.71875 20.5C6.75 19.7917 6.89062 19.1354 7.14062 18.5312C7.39062 17.9271 7.68229 17.4062 8.01562 16.9688C8.34896 16.5312 8.6875 16.1927 9.03125 15.9531C9.375 15.7031 9.66146 15.5781 9.89062 15.5781C10.0365 15.5781 10.1667 15.6302 10.2812 15.7344C10.4062 15.8281 10.5 15.9531 10.5625 16.1094C10.6354 16.2552 10.6771 16.4219 10.6875 16.6094C10.7083 16.7865 10.6875 16.9583 10.625 17.125C10.5208 17.0521 10.3281 17.0781 10.0469 17.2031C9.76562 17.3281 9.47396 17.5417 9.17188 17.8438C8.86979 18.1354 8.59896 18.5 8.35938 18.9375C8.11979 19.375 7.98438 19.8646 7.95312 20.4062C7.93229 20.7604 7.94792 21.0625 8 21.3125C8.0625 21.5625 8.14583 21.7656 8.25 21.9219C8.36458 22.0781 8.48958 22.1927 8.625 22.2656C8.77083 22.3385 8.92188 22.375 9.07812 22.375C9.45312 22.375 9.79688 22.2344 10.1094 21.9531C10.4219 21.6719 10.7083 21.276 10.9688 20.7656C11.2292 20.2656 11.474 19.6667 11.7031 18.9688C11.9323 18.2604 12.151 17.4792 12.3594 16.625C12.4219 16.3646 12.5 16.0417 12.5938 15.6562C12.6979 15.2708 12.8073 14.8542 12.9219 14.4062C13.0365 13.9479 13.1562 13.4792 13.2812 13C13.4167 12.5104 13.5417 12.0469 13.6562 11.6094C13.7708 11.1615 13.8802 10.75 13.9844 10.375C14.0885 9.98958 14.1719 9.67708 14.2344 9.4375C13.8906 9.4375 13.5469 9.45833 13.2031 9.5C12.9115 9.53125 12.6094 9.57812 12.2969 9.64062C11.9844 9.69271 11.724 9.76562 11.5156 9.85938C11.4948 9.84896 11.4792 9.82292 11.4688 9.78125C11.4583 9.72917 11.4479 9.67708 11.4375 9.625C11.4271 9.5625 11.4167 9.49479 11.4062 9.42188C11.3958 9.33854 11.3958 9.25521 11.4062 9.17188C11.4167 9.09896 11.4271 9.02083 11.4375 8.9375C11.4479 8.84375 11.4688 8.75 11.5 8.65625C11.7708 8.57292 12.0833 8.51042 12.4375 8.46875C12.8021 8.41667 13.1406 8.38021 13.4531 8.35938C13.8177 8.32812 14.1927 8.3125 14.5781 8.3125C14.8594 8.3125 15.151 8.32812 15.4531 8.35938C15.7135 8.38021 16.0052 8.41146 16.3281 8.45312C16.651 8.49479 16.974 8.55729 17.2969 8.64062C17.3698 8.71354 17.4167 8.79688 17.4375 8.89062C17.4479 8.93229 17.4531 8.97917 17.4531 9.03125C17.4531 9.11458 17.4375 9.19271 17.4062 9.26562C17.3854 9.32812 17.349 9.39583 17.2969 9.46875C17.2552 9.53125 17.1979 9.58333 17.125 9.625C17.0104 9.59375 16.8646 9.57292 16.6875 9.5625C16.5208 9.54167 16.3542 9.52083 16.1875 9.5C16 9.47917 15.8021 9.46354 15.5938 9.45312L13.9375 16.8281C13.8958 17.0052 13.8229 17.2865 13.7188 17.6719C13.6146 18.0469 13.4688 18.4688 13.2812 18.9375C13.1042 19.3958 12.8854 19.8698 12.625 20.3594C12.375 20.849 12.0781 21.2917 11.7344 21.6875C11.3906 22.0938 11 22.4271 10.5625 22.6875C10.125 22.9479 9.64062 23.0781 9.10938 23.0781Z" fill="#FFDC52"/>
</svg>
