<svg width="284" height="58" viewBox="0 0 284 58" fill="none" xmlns="http://www.w3.org/2000/svg">
<path d="M58 29C58 45.0163 45.0163 58 29 58C12.9837 58 0 45.0163 0 29C0 12.9837 12.9837 0 29 0C45.0163 0 58 12.9837 58 29Z" fill="#0042A6"/>
<path d="M29.86 15.96V15.4H35.38C36.4467 15.4 37.2933 15.5467 37.92 15.84C38.5467 16.1333 38.9933 16.52 39.26 17C39.54 17.48 39.68 18.0133 39.68 18.6V19.14C39.68 19.8333 39.46 20.4333 39.02 20.94C38.5933 21.4333 37.9667 21.7867 37.14 22C38.1533 22.1733 38.9267 22.5333 39.46 23.08C40.0067 23.6267 40.28 24.3133 40.28 25.14V25.7C40.28 26.3 40.14 26.8533 39.86 27.36C39.58 27.8533 39.1133 28.2533 38.46 28.56C37.82 28.8533 36.96 29 35.88 29H29.86V28.44L30.96 28.3C31.1733 28.2733 31.3 28.22 31.34 28.14C31.38 28.0467 31.4 27.7733 31.4 27.32V17.08C31.4 16.6267 31.38 16.36 31.34 16.28C31.3 16.1867 31.1733 16.1267 30.96 16.1L29.86 15.96ZM35.38 16.1H33.8V21.7H35.38C35.9533 21.7 36.3867 21.5067 36.68 21.12C36.9733 20.72 37.12 20.0933 37.12 19.24V18.6C37.12 17.7333 36.9733 17.1 36.68 16.7C36.3867 16.3 35.9533 16.1 35.38 16.1ZM35.88 22.4H33.8V28.3H35.88C36.48 28.3 36.9333 28.1 37.24 27.7C37.56 27.2867 37.72 26.62 37.72 25.7V25.04C37.72 23.28 37.1067 22.4 35.88 22.4Z" fill="white"/>
<path d="M45.56 43.44V44H40.08V43.44L41.18 43.3C41.3933 43.2733 41.52 43.22 41.56 43.14C41.6 43.0467 41.62 42.7733 41.62 42.32V32.04L37.96 42.4H35.82L32.2 32.1V42.32C32.2 42.7733 32.22 43.0467 32.26 43.14C32.3 43.22 32.4267 43.2733 32.64 43.3L33.74 43.44V44H29.86V43.44L30.96 43.3C31.1733 43.2733 31.3 43.22 31.34 43.14C31.38 43.0467 31.4 42.7733 31.4 42.32V32.08C31.4 31.6267 31.38 31.36 31.34 31.28C31.3 31.1867 31.1733 31.1267 30.96 31.1L29.86 30.96V30.4H34.08L37.74 40.8L41.46 30.4H45.56V30.96L44.46 31.1C44.2467 31.1267 44.12 31.1867 44.08 31.28C44.04 31.36 44.02 31.6267 44.02 32.08V42.32C44.02 42.7733 44.04 43.0467 44.08 43.14C44.12 43.22 44.2467 43.2733 44.46 43.3L45.56 43.44Z" fill="white"/>
<path d="M11.7734 45.6953C11.0182 45.6953 10.276 45.5391 9.54688 45.2266C8.81771 44.9401 8.16667 44.5234 7.59375 43.9766C7.02083 43.4297 6.5651 42.7526 6.22656 41.9453C5.88802 41.1641 5.74479 40.2656 5.79688 39.25C5.875 37.4792 6.22656 35.8385 6.85156 34.3281C7.47656 32.8177 8.20573 31.5156 9.03906 30.4219C9.8724 29.3281 10.7188 28.4818 11.5781 27.8828C12.4375 27.2578 13.1536 26.9453 13.7266 26.9453C14.0911 26.9453 14.4167 27.0755 14.7031 27.3359C15.0156 27.5703 15.25 27.8828 15.4062 28.2734C15.5885 28.638 15.6927 29.0547 15.7188 29.5234C15.7708 29.9661 15.7188 30.3958 15.5625 30.8125C15.3021 30.6302 14.8203 30.6953 14.1172 31.0078C13.4141 31.3203 12.6849 31.8542 11.9297 32.6094C11.1745 33.3385 10.4974 34.25 9.89844 35.3438C9.29948 36.4375 8.96094 37.6615 8.88281 39.0156C8.83073 39.901 8.86979 40.6562 9 41.2812C9.15625 41.9062 9.36458 42.4141 9.625 42.8047C9.91146 43.1953 10.224 43.4818 10.5625 43.6641C10.9271 43.8464 11.3047 43.9375 11.6953 43.9375C12.6328 43.9375 13.4922 43.5859 14.2734 42.8828C15.0547 42.1797 15.7708 41.1901 16.4219 39.9141C17.0729 38.6641 17.6849 37.1667 18.2578 35.4219C18.8307 33.651 19.3776 31.6979 19.8984 29.5625C20.0547 28.9115 20.25 28.1042 20.4844 27.1406C20.7448 26.1771 21.0182 25.1354 21.3047 24.0156C21.5911 22.8698 21.8906 21.6979 22.2031 20.5C22.5417 19.276 22.8542 18.1172 23.1406 17.0234C23.4271 15.9036 23.7005 14.875 23.9609 13.9375C24.2214 12.974 24.4297 12.1927 24.5859 11.5938C23.7266 11.5938 22.8672 11.6458 22.0078 11.75C21.2786 11.8281 20.5234 11.9453 19.7422 12.1016C18.9609 12.2318 18.3099 12.4141 17.7891 12.6484C17.737 12.6224 17.6979 12.5573 17.6719 12.4531C17.6458 12.3229 17.6198 12.1927 17.5938 12.0625C17.5677 11.9062 17.5417 11.737 17.5156 11.5547C17.4896 11.3464 17.4896 11.138 17.5156 10.9297C17.5417 10.7474 17.5677 10.5521 17.5938 10.3438C17.6198 10.1094 17.6719 9.875 17.75 9.64062C18.4271 9.43229 19.2083 9.27604 20.0938 9.17188C21.0052 9.04167 21.8516 8.95052 22.6328 8.89844C23.5443 8.82031 24.4818 8.78125 25.4453 8.78125C26.1484 8.78125 26.8776 8.82031 27.6328 8.89844C28.2839 8.95052 29.013 9.02865 29.8203 9.13281C30.6276 9.23698 31.4349 9.39323 32.2422 9.60156C32.4245 9.78385 32.5417 9.99219 32.5938 10.2266C32.6198 10.3307 32.6328 10.4479 32.6328 10.5781C32.6328 10.7865 32.5938 10.9818 32.5156 11.1641C32.4635 11.3203 32.3724 11.4896 32.2422 11.6719C32.138 11.8281 31.9948 11.9583 31.8125 12.0625C31.526 11.9844 31.1615 11.9323 30.7188 11.9062C30.3021 11.8542 29.8854 11.8021 29.4688 11.75C29 11.6979 28.5052 11.6589 27.9844 11.6328L23.8438 30.0703C23.7396 30.513 23.5573 31.2161 23.2969 32.1797C23.0365 33.1172 22.6719 34.1719 22.2031 35.3438C21.7604 36.4896 21.2135 37.6745 20.5625 38.8984C19.9375 40.1224 19.1953 41.2292 18.3359 42.2188C17.4766 43.2344 16.5 44.0677 15.4062 44.7188C14.3125 45.3698 13.1016 45.6953 11.7734 45.6953Z" fill="#FFDC52"/>
<path d="M70.91 33.385C70.91 36.955 71.345 39.52 72.215 41.08C73.085 42.61 74.375 43.375 76.085 43.375C77.165 43.375 78.11 43.3 78.92 43.15C79.73 42.97 80.465 42.88 81.125 42.88C82.325 42.88 83.195 43.135 83.735 43.645C84.275 44.125 84.545 44.755 84.545 45.535C84.545 46.555 84.17 47.335 83.42 47.875C82.7 48.415 81.77 48.79 80.63 49C79.52 49.21 78.38 49.315 77.21 49.315C73.97 49.315 71.39 48.715 69.47 47.515C67.58 46.315 66.215 44.545 65.375 42.205C64.565 39.835 64.16 36.895 64.16 33.385C64.16 29.875 64.565 26.905 65.375 24.475C66.215 22.015 67.58 20.155 69.47 18.895C71.39 17.635 73.97 17.005 77.21 17.005C78.38 17.005 79.52 17.11 80.63 17.32C81.77 17.53 82.7 17.905 83.42 18.445C84.17 18.985 84.545 19.765 84.545 20.785C84.545 21.535 84.275 22.165 83.735 22.675C83.195 23.185 82.325 23.44 81.125 23.44C80.465 23.44 79.73 23.365 78.92 23.215C78.11 23.035 77.165 22.945 76.085 22.945C73.985 22.945 72.59 23.8 71.9 25.51C71.24 27.19 70.91 29.815 70.91 33.385ZM93.538 49.36C90.328 49.36 87.793 48.445 85.933 46.615C84.073 44.785 83.143 41.83 83.143 37.75C83.143 33.64 84.073 30.685 85.933 28.885C87.793 27.055 90.328 26.14 93.538 26.14C96.748 26.14 99.283 27.055 101.143 28.885C103.003 30.685 103.933 33.64 103.933 37.75C103.933 41.83 103.003 44.785 101.143 46.615C99.283 48.445 96.748 49.36 93.538 49.36ZM93.538 43.96C94.378 43.96 95.083 43.795 95.653 43.465C96.223 43.105 96.658 42.475 96.958 41.575C97.288 40.675 97.453 39.4 97.453 37.75C97.453 36.1 97.288 34.825 96.958 33.925C96.658 33.025 96.223 32.41 95.653 32.08C95.083 31.72 94.378 31.54 93.538 31.54C92.728 31.54 92.023 31.72 91.423 32.08C90.853 32.41 90.403 33.025 90.073 33.925C89.773 34.825 89.623 36.1 89.623 37.75C89.623 39.4 89.773 40.675 90.073 41.575C90.403 42.475 90.853 43.105 91.423 43.465C92.023 43.795 92.728 43.96 93.538 43.96ZM110.153 49.36C107.993 49.36 106.913 48.34 106.913 46.3V35.5C106.913 32.62 107.828 30.34 109.658 28.66C111.518 26.98 113.963 26.14 116.993 26.14C120.023 26.14 122.453 26.98 124.283 28.66C126.143 30.34 127.073 32.62 127.073 35.5V46.3C127.073 48.34 125.993 49.36 123.833 49.36C121.673 49.36 120.593 48.34 120.593 46.3V35.86C120.593 34.45 120.278 33.385 119.648 32.665C119.018 31.915 118.133 31.54 116.993 31.54C115.853 31.54 114.968 31.915 114.338 32.665C113.708 33.385 113.393 34.45 113.393 35.86V46.3C113.393 48.34 112.313 49.36 110.153 49.36ZM139.904 49.36C137.114 49.36 135.044 48.7 133.694 47.38C132.374 46.06 131.714 44.035 131.714 41.305V31.945H130.544C128.504 31.945 127.484 31.03 127.484 29.2C127.484 27.4 128.504 26.5 130.544 26.5H131.714V21.64C131.714 20.65 132.014 19.84 132.614 19.21C133.244 18.58 134.054 18.265 135.044 18.265C136.004 18.265 136.769 18.565 137.339 19.165C137.909 19.735 138.194 20.53 138.194 21.55V23.755C138.194 24.865 138.014 25.78 137.654 26.5H141.929C143.969 26.5 144.989 27.4 144.989 29.2C144.989 31.03 143.969 31.945 141.929 31.945H138.194V41.44C138.194 42.34 138.299 42.985 138.509 43.375C138.719 43.735 139.064 43.915 139.544 43.915C140.174 43.915 140.639 43.87 140.939 43.78C141.269 43.66 141.674 43.6 142.154 43.6C142.964 43.6 143.609 43.75 144.089 44.05C144.569 44.32 144.809 44.89 144.809 45.76C144.809 46.99 144.419 47.905 143.639 48.505C142.859 49.075 141.614 49.36 139.904 49.36ZM155.73 49.36C152.73 49.36 150.39 48.67 148.71 47.29C147.03 45.88 146.19 44.065 146.19 41.845C146.19 39.235 147.285 37.345 149.475 36.175C151.695 35.005 154.935 34.6 159.195 34.96C158.985 33.58 158.55 32.65 157.89 32.17C157.23 31.66 156.435 31.405 155.505 31.405C154.755 31.405 154.125 31.45 153.615 31.54C153.135 31.6 152.685 31.675 152.265 31.765C151.845 31.855 151.335 31.9 150.735 31.9C149.925 31.9 149.28 31.765 148.8 31.495C148.32 31.195 148.08 30.61 148.08 29.74C148.08 28.51 148.605 27.61 149.655 27.04C150.735 26.44 152.43 26.14 154.74 26.14C158.4 26.14 161.115 27.19 162.885 29.29C164.655 31.36 165.54 34.135 165.54 37.615C165.54 41.635 164.805 44.605 163.335 46.525C161.895 48.415 159.36 49.36 155.73 49.36ZM152.67 41.845C152.67 43.555 153.825 44.41 156.135 44.41C156.885 44.41 157.47 44.275 157.89 44.005C158.31 43.735 158.61 43.195 158.79 42.385C159 41.575 159.15 40.36 159.24 38.74C159.09 38.89 158.895 38.995 158.655 39.055C158.415 39.115 158.175 39.145 157.935 39.145C155.955 39.145 154.575 39.34 153.795 39.73C153.045 40.09 152.67 40.795 152.67 41.845ZM178.012 49.36C174.712 49.36 172.102 48.31 170.182 46.21C168.292 44.11 167.347 41.035 167.347 36.985C167.347 34.285 167.737 32.14 168.517 30.55C169.297 28.96 170.377 27.835 171.757 27.175C173.167 26.485 174.757 26.14 176.527 26.14C178.117 26.14 179.407 26.335 180.397 26.725C181.387 27.115 182.167 27.775 182.737 28.705C182.527 28.075 182.362 27.49 182.242 26.95C182.152 26.38 182.077 25.72 182.017 24.97C181.987 24.22 181.972 23.26 181.972 22.09V18.22C181.972 15.88 182.977 14.71 184.987 14.71C187.177 14.71 188.272 15.88 188.272 18.22V37.255C188.272 41.305 187.372 44.335 185.572 46.345C183.772 48.355 181.252 49.36 178.012 49.36ZM177.697 43.96C178.957 43.96 179.932 43.51 180.622 42.61C181.342 41.71 181.702 40.03 181.702 37.57C181.702 35.92 181.537 34.675 181.207 33.835C180.907 32.965 180.457 32.365 179.857 32.035C179.257 31.705 178.537 31.54 177.697 31.54C176.857 31.54 176.137 31.705 175.537 32.035C174.937 32.365 174.472 32.965 174.142 33.835C173.842 34.675 173.692 35.92 173.692 37.57C173.692 40.03 174.037 41.71 174.727 42.61C175.447 43.51 176.437 43.96 177.697 43.96ZM201.573 49.36C198.363 49.36 195.828 48.445 193.968 46.615C192.108 44.785 191.178 41.83 191.178 37.75C191.178 33.64 192.108 30.685 193.968 28.885C195.828 27.055 198.363 26.14 201.573 26.14C204.783 26.14 207.318 27.055 209.178 28.885C211.038 30.685 211.968 33.64 211.968 37.75C211.968 41.83 211.038 44.785 209.178 46.615C207.318 48.445 204.783 49.36 201.573 49.36ZM201.573 43.96C202.413 43.96 203.118 43.795 203.688 43.465C204.258 43.105 204.693 42.475 204.993 41.575C205.323 40.675 205.488 39.4 205.488 37.75C205.488 36.1 205.323 34.825 204.993 33.925C204.693 33.025 204.258 32.41 203.688 32.08C203.118 31.72 202.413 31.54 201.573 31.54C200.763 31.54 200.058 31.72 199.458 32.08C198.888 32.41 198.438 33.025 198.108 33.925C197.808 34.825 197.658 36.1 197.658 37.75C197.658 39.4 197.808 40.675 198.108 41.575C198.438 42.475 198.888 43.105 199.458 43.465C200.058 43.795 200.763 43.96 201.573 43.96ZM218.188 49.36C216.028 49.36 214.948 48.34 214.948 46.3V29.245C214.948 27.175 216.028 26.14 218.188 26.14C219.268 26.14 220.048 26.38 220.528 26.86C221.008 27.31 221.248 28.06 221.248 29.11C221.788 28.12 222.553 27.385 223.543 26.905C224.563 26.395 225.748 26.14 227.098 26.14C229.678 26.14 230.968 27.265 230.968 29.515C230.968 30.355 230.653 30.985 230.023 31.405C229.393 31.825 228.358 32.035 226.918 32.035C225.508 32.035 224.398 32.17 223.588 32.44C222.778 32.68 222.208 33.145 221.878 33.835C221.578 34.495 221.428 35.455 221.428 36.715V46.3C221.428 48.34 220.348 49.36 218.188 49.36ZM241.575 49.36C238.575 49.36 236.22 48.865 234.51 47.875C232.83 46.885 231.63 45.52 230.91 43.78C230.22 42.04 229.875 40.045 229.875 37.795C229.875 33.655 230.79 30.685 232.62 28.885C234.45 27.055 236.91 26.14 240 26.14C241.86 26.14 243.51 26.455 244.95 27.085C246.39 27.715 247.515 28.615 248.325 29.785C249.135 30.925 249.54 32.32 249.54 33.97C249.54 38.77 246.12 41.17 239.28 41.17H236.67C236.91 42.1 237.3 42.835 237.84 43.375C238.41 43.885 239.4 44.14 240.81 44.14C241.59 44.14 242.22 44.095 242.7 44.005C243.18 43.915 243.63 43.825 244.05 43.735C244.5 43.645 245.01 43.6 245.58 43.6C246.39 43.6 247.035 43.75 247.515 44.05C247.995 44.32 248.235 44.89 248.235 45.76C248.235 46.99 247.695 47.905 246.615 48.505C245.565 49.075 243.885 49.36 241.575 49.36ZM236.355 37.84C236.595 37.51 236.865 37.3 237.165 37.21C237.465 37.09 237.93 37.03 238.56 37.03C240.33 37.03 241.545 36.865 242.205 36.535C242.895 36.175 243.24 35.545 243.24 34.645C243.24 33.505 242.925 32.635 242.295 32.035C241.665 31.405 240.87 31.09 239.91 31.09C238.8 31.09 237.93 31.555 237.3 32.485C236.67 33.415 236.355 35.2 236.355 37.84ZM259.927 49.36C254.287 49.36 251.467 48.115 251.467 45.625C251.467 44.845 251.677 44.23 252.097 43.78C252.517 43.33 253.072 43.105 253.762 43.105C254.062 43.105 254.347 43.15 254.617 43.24C254.917 43.3 255.487 43.465 256.327 43.735C256.687 43.855 257.167 43.975 257.767 44.095C258.367 44.215 258.952 44.275 259.522 44.275C260.602 44.275 261.367 44.14 261.817 43.87C262.267 43.6 262.492 43.15 262.492 42.52C262.492 42.01 262.372 41.62 262.132 41.35C261.892 41.05 261.382 40.765 260.602 40.495C259.822 40.225 258.607 39.85 256.957 39.37C255.457 38.95 254.242 38.2 253.312 37.12C252.412 36.01 251.962 34.645 251.962 33.025C251.962 30.745 252.787 29.005 254.437 27.805C256.087 26.605 258.352 26.005 261.232 26.005C263.392 26.005 265.087 26.305 266.317 26.905C267.547 27.505 268.162 28.375 268.162 29.515C268.162 30.235 267.952 30.835 267.532 31.315C267.112 31.795 266.542 32.035 265.822 32.035C265.522 32.035 265.162 31.99 264.742 31.9C264.352 31.81 263.872 31.69 263.302 31.54C262.882 31.39 262.432 31.27 261.952 31.18C261.502 31.09 261.022 31.045 260.512 31.045C259.072 31.045 258.352 31.555 258.352 32.575C258.352 33.175 258.637 33.685 259.207 34.105C259.777 34.495 260.872 34.93 262.492 35.41C264.712 36.07 266.347 36.955 267.397 38.065C268.447 39.145 268.972 40.585 268.972 42.385C268.972 44.485 268.162 46.18 266.542 47.47C264.952 48.73 262.747 49.36 259.927 49.36Z" fill="#222222"/>
</svg>
